<?xml version="1.0" standalone="no"?>
<!DOCTYPE svg PUBLIC "-//W3C//DTD SVG 20010904//EN"
 "http://www.w3.org/TR/2001/REC-SVG-20010904/DTD/svg10.dtd">
<svg version="1.0" xmlns="http://www.w3.org/2000/svg"
 width="1232.000000pt" height="1232.000000pt" viewBox="0 0 1232.000000 1232.000000"
 preserveAspectRatio="xMidYMid meet">
<metadata>
Created by potrace 1.11, written by Peter Selinger 2001-2013
</metadata>
<g transform="translate(0.000000,1232.000000) scale(0.100000,-0.100000)"
fill="#000000" stroke="none">
<path d="M5940 8255 l0 -445 -135 0 -135 0 0 -240 0 -240 -170 0 -170 0 0
-345 0 -345 -85 0 -85 0 0 -155 0 -155 -1545 0 -1545 0 0 155 0 155 -430 0
-430 0 0 -955 0 -955 -405 0 -405 0 0 -280 0 -280 803 0 c441 0 1028 -3 1305
-7 l502 -6 0 101 0 102 760 0 760 0 0 -100 0 -100 390 0 390 0 0 -105 0 -105
300 0 300 0 0 -25 0 -25 105 0 105 0 0 -90 0 -90 445 0 445 0 0 175 0 175 225
0 225 0 0 66 0 65 130 -3 130 -3 0 53 0 52 240 0 240 0 0 75 0 75 690 0 c618
0 690 -2 690 -16 0 -13 17 -15 120 -12 l120 3 0 -177 0 -178 675 0 675 0 0 35
0 35 355 0 355 0 0 350 0 350 -190 0 -190 0 0 -25 c0 -25 -1 -25 -90 -25 l-90
0 0 740 0 740 -105 0 -105 0 0 163 0 162 -320 0 -320 0 0 -162 0 -163 -1375 0
-1375 0 0 105 c0 63 -4 105 -10 105 -6 0 -10 115 -10 325 l0 325 115 0 115 0
0 435 0 435 95 0 95 0 0 280 0 280 -75 0 -75 0 0 60 0 60 -110 0 -110 0 0
-130 0 -130 -40 0 -40 0 0 -157 0 -158 -60 3 -60 4 0 -196 0 -196 -270 0 -270
0 0 490 0 490 -535 0 -535 0 0 -445z m1037 23 c-3 -8 -6 -5 -6 6 -1 11 2 17 5
13 3 -3 4 -12 1 -19z m-940 -100 c-3 -7 -5 -2 -5 12 0 14 2 19 5 13 2 -7 2
-19 0 -25z m476 -425 c-7 -2 -19 -2 -25 0 -7 3 -2 5 12 5 14 0 19 -2 13 -5z
m-376 -39 c-3 -3 -12 -4 -19 -1 -8 3 -5 6 6 6 11 1 17 -2 13 -5z m123 -18 c0
-2 -7 -7 -16 -10 -8 -3 -12 -2 -9 4 6 10 25 14 25 6z m927 -531 c0 -8 -4 -12
-9 -9 -5 3 -6 10 -3 15 9 13 12 11 12 -6z m-480 -470 c0 -8 -4 -12 -9 -9 -5 3
-6 10 -3 15 9 13 12 11 12 -6z m-40 -40 c0 -8 -4 -12 -9 -9 -5 3 -6 10 -3 15
9 13 12 11 12 -6z m-207 -185 l0 -60 155 0 155 0 0 -65 0 -65 -155 0 c-148 0
-155 -1 -155 -20 0 -19 -7 -20 -105 -20 -98 0 -105 1 -105 20 0 17 -7 20 -45
20 l-45 0 0 65 0 65 45 0 45 0 0 60 0 60 105 0 105 0 0 -60z m-1103 -246 c-3
-3 -12 -4 -19 -1 -8 3 -5 6 6 6 11 1 17 -2 13 -5z m431 -1 c-75 -2 -201 -2
-280 0 -79 1 -17 3 137 3 154 0 218 -2 143 -3z m359 -78 c0 -8 -4 -12 -9 -9
-5 3 -6 10 -3 15 9 13 12 11 12 -6z m128 -5 c10 -11 16 -20 13 -20 -3 0 -13 9
-23 20 -10 11 -16 20 -13 20 3 0 13 -9 23 -20z m-3753 -5 c2 3 5 -2 5 -10 0
-19 0 -19 -23 7 -12 14 -13 18 -3 10 9 -6 18 -10 21 -7z m3723 5 c3 -6 -1 -7
-9 -4 -18 7 -21 14 -7 14 6 0 13 -4 16 -10z m-3654 -87 c13 -16 12 -17 -3 -4
-17 13 -22 21 -14 21 2 0 10 -8 17 -17z m-1214 -135 c-3 -8 -6 -5 -6 6 -1 11
2 17 5 13 3 -3 4 -12 1 -19z m-10 -170 c-2 -18 -4 -4 -4 32 0 36 2 50 4 33 2
-18 2 -48 0 -65z m1494 65 c13 -16 12 -17 -3 -4 -10 7 -18 15 -18 17 0 8 8 3
21 -13z m80 -80 c13 -16 12 -17 -3 -4 -10 7 -18 15 -18 17 0 8 8 3 21 -13z
m2726 -58 c0 -8 -4 -12 -9 -9 -5 3 -6 10 -3 15 9 13 12 11 12 -6z m5560 -7
c-3 -8 -6 -5 -6 6 -1 11 2 17 5 13 3 -3 4 -12 1 -19z m-8225 -3 c3 3 10 -1 16
-8 9 -10 8 -14 -3 -14 -8 0 -23 10 -32 21 -14 15 -14 18 -2 8 9 -6 18 -10 21
-7z m2625 -30 c0 -8 -4 -12 -9 -9 -5 3 -6 10 -3 15 9 13 12 11 12 -6z m-4250
-47 c-3 -7 -5 -2 -5 12 0 14 2 19 5 13 2 -7 2 -19 0 -25z m1694 -5 c13 -16 12
-17 -3 -4 -10 7 -18 15 -18 17 0 8 8 3 21 -13z m80 -80 c13 -16 12 -17 -3 -4
-10 7 -18 15 -18 17 0 8 8 3 21 -13z m270 -240 c13 -16 12 -17 -3 -4 -17 13
-22 21 -14 21 2 0 10 -8 17 -17z m80 -80 c13 -16 12 -17 -3 -4 -10 7 -18 15
-18 17 0 8 8 3 21 -13z m3744 -2 c3 -5 2 -12 -3 -15 -5 -3 -9 1 -9 9 0 17 3
19 12 6z m-2098 -16 c0 -8 -4 -12 -9 -9 -5 3 -6 10 -3 15 9 13 12 11 12 -6z
m-40 -40 c0 -8 -4 -12 -9 -9 -5 3 -6 10 -3 15 9 13 12 11 12 -6z m3733 5 c8
-5 11 -10 5 -10 -5 0 -17 5 -25 10 -8 5 -10 10 -5 10 6 0 17 -5 25 -10z m327
4 c-3 -3 -12 -4 -19 -1 -8 3 -5 6 6 6 11 1 17 -2 13 -5z m-8616 -471 c13 -16
12 -17 -3 -4 -10 7 -18 15 -18 17 0 8 8 3 21 -13z m10886 -29 c-3 -3 -12 -4
-19 -1 -8 3 -5 6 6 6 11 1 17 -2 13 -5z m-10670 -10 c-3 -3 -12 -4 -19 -1 -8
3 -5 6 6 6 11 1 17 -2 13 -5z m986 -1 c-7 -2 -19 -2 -25 0 -7 3 -2 5 12 5 14
0 19 -2 13 -5z m6944 1 c-3 -3 -12 -4 -19 -1 -8 3 -5 6 6 6 11 1 17 -2 13 -5z
m290 0 c-3 -3 -12 -4 -19 -1 -8 3 -5 6 6 6 11 1 17 -2 13 -5z m-1900 -10 c-3
-3 -12 -4 -19 -1 -8 3 -5 6 6 6 11 1 17 -2 13 -5z m-6160 -10 c-3 -3 -12 -4
-19 -1 -8 3 -5 6 6 6 11 1 17 -2 13 -5z m506 -11 c-7 -2 -21 -2 -30 0 -10 3
-4 5 12 5 17 0 24 -2 18 -5z m4784 -85 c-3 -8 -6 -5 -6 6 -1 11 2 17 5 13 3
-3 4 -12 1 -19z m-4160 -294 c-3 -3 -12 -4 -19 -1 -8 3 -5 6 6 6 11 1 17 -2
13 -5z m-334 -11 c-7 -2 -21 -2 -30 0 -10 3 -4 5 12 5 17 0 24 -2 18 -5z"/>
<path d="M12290 1820 l0 -1800 -6145 0 c-4090 0 -6145 -3 -6145 -10 0 -7 2060
-10 6160 -10 l6160 0 0 1810 c0 1602 -2 1810 -15 1810 -13 0 -15 -207 -15
-1800z"/>
</g>
</svg>
